<svg id="visual" viewBox="0 0 900 600" width="900" height="600" xmlns="http://www.w3.org/2000/svg" xmlns:xlink="http://www.w3.org/1999/xlink" version="1.1"><path d="M0 454L16.7 445.8C33.3 437.7 66.7 421.3 100 430.5C133.3 439.7 166.7 474.3 200 479C233.3 483.7 266.7 458.3 300 439.3C333.3 420.3 366.7 407.7 400 418C433.3 428.3 466.7 461.7 500 477C533.3 492.3 566.7 489.7 600 480C633.3 470.3 666.7 453.7 700 454.5C733.3 455.3 766.7 473.7 800 484.5C833.3 495.3 866.7 498.7 883.3 500.3L900 502L900 601L883.3 601C866.7 601 833.3 601 800 601C766.7 601 733.3 601 700 601C666.7 601 633.3 601 600 601C566.7 601 533.3 601 500 601C466.7 601 433.3 601 400 601C366.7 601 333.3 601 300 601C266.7 601 233.3 601 200 601C166.7 601 133.3 601 100 601C66.7 601 33.3 601 16.7 601L0 601Z" fill="#fff" stroke-linecap="round" stroke-linejoin="miter"></path></svg>